<svg width="105" height="18" viewBox="0 0 105 18" fill="none" xmlns="http://www.w3.org/2000/svg">
<path d="M0.617499 17.12V4.18C0.617499 3.60667 0.664165 3.12 0.757499 2.72C0.864165 2.32 1.0375 1.99333 1.2775 1.74C1.5175 1.48667 1.8375 1.30667 2.2375 1.2C2.6375 1.08 3.1375 1.02 3.7375 1.02H10.3975C10.6908 1.02 10.9375 1.07333 11.1375 1.18C11.3375 1.28667 11.5042 1.42667 11.6375 1.6C11.7708 1.77333 11.8642 1.96667 11.9175 2.18C11.9842 2.39333 12.0175 2.6 12.0175 2.8C12.0175 3 11.9842 3.20667 11.9175 3.42C11.8642 3.62 11.7708 3.80667 11.6375 3.98C11.5175 4.14 11.3508 4.27333 11.1375 4.38C10.9375 4.47333 10.6908 4.52 10.3975 4.52H5.3175C5.09083 4.52 4.9375 4.56 4.8575 4.64C4.7775 4.70667 4.7375 4.86 4.7375 5.1V7.62H9.8775C10.1708 7.62 10.4175 7.67333 10.6175 7.78C10.8175 7.88667 10.9842 8.02667 11.1175 8.2C11.2508 8.37333 11.3442 8.56667 11.3975 8.78C11.4642 8.99333 11.4975 9.2 11.4975 9.4C11.4975 9.6 11.4642 9.80667 11.3975 10.02C11.3442 10.22 11.2508 10.4067 11.1175 10.58C10.9975 10.74 10.8308 10.8733 10.6175 10.98C10.4175 11.0733 10.1708 11.12 9.8775 11.12H4.7375V17.12H0.617499ZM12.8486 7.02C12.8486 5.87333 13.0553 4.91333 13.4686 4.14C13.8819 3.35333 14.4153 2.72667 15.0686 2.26C15.7219 1.78 16.4419 1.44 17.2286 1.24C18.0286 1.02667 18.8019 0.92 19.5486 0.92C20.2819 0.92 21.0419 1.02667 21.8286 1.24C22.6286 1.44 23.3553 1.78 24.0086 2.26C24.6619 2.72667 25.1953 3.35333 25.6086 4.14C26.0353 4.91333 26.2486 5.87333 26.2486 7.02V11.4C26.2486 12.5467 26.0353 13.5133 25.6086 14.3C25.1953 15.0733 24.6619 15.7 24.0086 16.18C23.3553 16.6467 22.6286 16.98 21.8286 17.18C21.0419 17.3933 20.2819 17.5 19.5486 17.5C18.8153 17.5 18.0486 17.3933 17.2486 17.18C16.4619 16.98 15.7419 16.6467 15.0886 16.18C14.4353 15.7 13.8953 15.0733 13.4686 14.3C13.0553 13.5133 12.8486 12.5467 12.8486 11.4V7.02ZM22.1686 6.9C22.1686 6.46 22.0886 6.08 21.9286 5.76C21.7819 5.44 21.5819 5.17333 21.3286 4.96C21.0753 4.74667 20.7953 4.59333 20.4886 4.5C20.1819 4.39333 19.8686 4.34 19.5486 4.34C19.2286 4.34 18.9153 4.39333 18.6086 4.5C18.3019 4.59333 18.0219 4.74667 17.7686 4.96C17.5153 5.17333 17.3086 5.44 17.1486 5.76C17.0019 6.08 16.9286 6.46 16.9286 6.9V11.52C16.9286 11.92 17.0086 12.28 17.1686 12.6C17.3419 12.92 17.5553 13.1933 17.8086 13.42C18.0619 13.6333 18.3419 13.8 18.6486 13.92C18.9686 14.0267 19.2686 14.08 19.5486 14.08C19.8286 14.08 20.1219 14.0267 20.4286 13.92C20.7486 13.8 21.0353 13.6333 21.2886 13.42C21.5419 13.1933 21.7486 12.92 21.9086 12.6C22.0819 12.28 22.1686 11.92 22.1686 11.52V6.9ZM27.5267 7.02C27.5267 5.87333 27.7334 4.91333 28.1467 4.14C28.5601 3.35333 29.0934 2.72667 29.7467 2.26C30.4001 1.78 31.1201 1.44 31.9067 1.24C32.7067 1.02667 33.4801 0.92 34.2267 0.92C34.9601 0.92 35.7201 1.02667 36.5067 1.24C37.3067 1.44 38.0334 1.78 38.6867 2.26C39.3401 2.72667 39.8734 3.35333 40.2867 4.14C40.7134 4.91333 40.9267 5.87333 40.9267 7.02V11.4C40.9267 12.5467 40.7134 13.5133 40.2867 14.3C39.8734 15.0733 39.3401 15.7 38.6867 16.18C38.0334 16.6467 37.3067 16.98 36.5067 17.18C35.7201 17.3933 34.9601 17.5 34.2267 17.5C33.4934 17.5 32.7267 17.3933 31.9267 17.18C31.1401 16.98 30.4201 16.6467 29.7667 16.18C29.1134 15.7 28.5734 15.0733 28.1467 14.3C27.7334 13.5133 27.5267 12.5467 27.5267 11.4V7.02ZM36.8467 6.9C36.8467 6.46 36.7667 6.08 36.6067 5.76C36.4601 5.44 36.2601 5.17333 36.0067 4.96C35.7534 4.74667 35.4734 4.59333 35.1667 4.5C34.8601 4.39333 34.5467 4.34 34.2267 4.34C33.9067 4.34 33.5934 4.39333 33.2867 4.5C32.9801 4.59333 32.7001 4.74667 32.4467 4.96C32.1934 5.17333 31.9867 5.44 31.8267 5.76C31.6801 6.08 31.6067 6.46 31.6067 6.9V11.52C31.6067 11.92 31.6867 12.28 31.8467 12.6C32.0201 12.92 32.2334 13.1933 32.4867 13.42C32.7401 13.6333 33.0201 13.8 33.3267 13.92C33.6467 14.0267 33.9467 14.08 34.2267 14.08C34.5067 14.08 34.8001 14.0267 35.1067 13.92C35.4267 13.8 35.7134 13.6333 35.9667 13.42C36.2201 13.1933 36.4267 12.92 36.5867 12.6C36.7601 12.28 36.8467 11.92 36.8467 11.52V6.9ZM48.5448 1.02C49.4115 1.02 50.2648 1.14667 51.1048 1.4C51.9582 1.64 52.7182 2.05333 53.3848 2.64C54.0648 3.21333 54.6115 3.97333 55.0248 4.92C55.4382 5.86667 55.6448 7.03333 55.6448 8.42V9.72C55.6448 11.1067 55.4382 12.2733 55.0248 13.22C54.6115 14.1667 54.0648 14.9333 53.3848 15.52C52.7182 16.0933 51.9582 16.5067 51.1048 16.76C50.2648 17 49.4115 17.12 48.5448 17.12H45.5648C44.9648 17.12 44.4648 17.0667 44.0648 16.96C43.6648 16.84 43.3448 16.6533 43.1048 16.4C42.8648 16.1467 42.6915 15.82 42.5848 15.42C42.4915 15.02 42.4448 14.5333 42.4448 13.96V4.18C42.4448 3.60667 42.4915 3.12 42.5848 2.72C42.6915 2.32 42.8648 1.99333 43.1048 1.74C43.3448 1.48667 43.6648 1.30667 44.0648 1.2C44.4648 1.08 44.9648 1.02 45.5648 1.02H48.5448ZM51.5648 8.1C51.5648 6.92667 51.2782 6.03333 50.7048 5.42C50.1315 4.79333 49.3715 4.48 48.4248 4.48H47.1048C46.8782 4.48 46.7248 4.52 46.6448 4.6C46.5648 4.66667 46.5248 4.82 46.5248 5.06V13.08C46.5248 13.32 46.5648 13.48 46.6448 13.56C46.7248 13.6267 46.8782 13.66 47.1048 13.66H48.4248C49.3715 13.66 50.1315 13.3533 50.7048 12.74C51.2782 12.1133 51.5648 11.2133 51.5648 10.04V8.1ZM65.4289 17.12C64.8289 17.12 64.3289 17.0667 63.9289 16.96C63.5289 16.84 63.2089 16.6533 62.9689 16.4C62.7289 16.1467 62.5556 15.82 62.4489 15.42C62.3556 15.02 62.3089 14.5333 62.3089 13.96V2.98C62.3089 2.64667 62.3622 2.35333 62.4689 2.1C62.5889 1.84667 62.7422 1.63333 62.9289 1.46C63.1289 1.28667 63.3556 1.16 63.6089 1.08C63.8622 0.986666 64.1222 0.939999 64.3889 0.939999C64.6556 0.939999 64.9156 0.986666 65.1689 1.08C65.4222 1.16 65.6422 1.28667 65.8289 1.46C66.0289 1.63333 66.1822 1.84667 66.2889 2.1C66.4089 2.35333 66.4689 2.64667 66.4689 2.98V13.04C66.4689 13.28 66.5089 13.44 66.5889 13.52C66.6689 13.5867 66.8222 13.62 67.0489 13.62H71.4889C71.7822 13.62 72.0289 13.6733 72.2289 13.78C72.4422 13.8733 72.6089 14.0067 72.7289 14.18C72.8622 14.34 72.9556 14.5267 73.0089 14.74C73.0756 14.94 73.1089 15.14 73.1089 15.34C73.1089 15.54 73.0756 15.7467 73.0089 15.96C72.9556 16.1733 72.8622 16.3667 72.7289 16.54C72.5956 16.7133 72.4289 16.8533 72.2289 16.96C72.0289 17.0667 71.7822 17.12 71.4889 17.12H65.4289ZM73.9192 2.94C73.9192 2.24667 74.1259 1.74 74.5392 1.42C74.9525 1.1 75.4392 0.939999 75.9992 0.939999C76.5592 0.939999 77.0459 1.1 77.4592 1.42C77.8725 1.74 78.0792 2.24667 78.0792 2.94V17.12H73.9192V2.94ZM83.6906 5.7C83.6773 6.07333 83.8906 6.39333 84.3306 6.66C84.7706 6.92667 85.3906 7.19333 86.1906 7.46L87.1706 7.8C87.7573 8.01333 88.284 8.28 88.7506 8.6C89.2306 8.92 89.6373 9.3 89.9706 9.74C90.304 10.1667 90.5506 10.6533 90.7106 11.2C90.8706 11.7333 90.9306 12.32 90.8906 12.96C90.7973 14.3867 90.2173 15.4933 89.1506 16.28C88.0973 17.0667 86.6573 17.46 84.8306 17.46C83.9373 17.46 83.0773 17.36 82.2506 17.16C81.424 16.9733 80.7373 16.6667 80.1906 16.24C80.004 16.08 79.844 15.9 79.7106 15.7C79.5773 15.4867 79.4773 15.2667 79.4106 15.04C79.3573 14.8133 79.3506 14.58 79.3906 14.34C79.4306 14.0867 79.524 13.8467 79.6706 13.62C79.8173 13.3933 80.024 13.22 80.2906 13.1C80.5573 12.98 80.824 12.9133 81.0906 12.9C81.4373 12.8867 81.7106 12.94 81.9106 13.06C82.124 13.18 82.324 13.2933 82.5106 13.4C82.7373 13.5467 83.0306 13.6733 83.3906 13.78C83.7506 13.8733 84.2706 13.92 84.9506 13.92C85.5106 13.92 85.944 13.82 86.2506 13.62C86.5573 13.42 86.7173 13.1 86.7306 12.66C86.7306 12.4733 86.6573 12.2933 86.5106 12.12C86.364 11.9467 86.1506 11.7867 85.8706 11.64C85.604 11.4933 85.2906 11.3533 84.9306 11.22C84.5706 11.0733 84.184 10.9333 83.7706 10.8C83.6106 10.7467 83.4373 10.6867 83.2506 10.62C83.0773 10.5533 82.9306 10.4933 82.8106 10.44C82.0506 10.12 81.4373 9.72667 80.9706 9.26C80.504 8.78 80.1506 8.26667 79.9106 7.72C79.684 7.16 79.564 6.58667 79.5506 6C79.5506 5.41333 79.6373 4.86 79.8106 4.34C80.1573 3.26 80.7973 2.42667 81.7306 1.84C82.6773 1.25333 83.8373 0.959999 85.2106 0.959999C85.7306 0.959999 86.184 0.986666 86.5706 1.04C86.9706 1.08 87.3173 1.14 87.6106 1.22C87.9173 1.28667 88.1773 1.37333 88.3906 1.48C88.6173 1.57333 88.824 1.66667 89.0106 1.76C89.4773 2.01333 89.8373 2.36667 90.0906 2.82C90.3573 3.27333 90.4173 3.74 90.2706 4.22C90.1373 4.63333 89.9106 4.92667 89.5906 5.1C89.284 5.27333 88.9373 5.36 88.5506 5.36C88.404 5.36 88.2373 5.33333 88.0506 5.28C87.864 5.22667 87.724 5.16667 87.6306 5.1C87.3906 4.94 87.084 4.8 86.7106 4.68C86.3373 4.56 85.8506 4.5 85.2506 4.5C84.7706 4.5 84.3906 4.6 84.1106 4.8C83.844 4.98667 83.704 5.28667 83.6906 5.7ZM95.6269 17.12V4.56H92.5669C92.2735 4.56 92.0202 4.50667 91.8069 4.4C91.6069 4.29333 91.4402 4.15333 91.3069 3.98C91.1869 3.80667 91.0935 3.61333 91.0269 3.4C90.9735 3.18667 90.9469 2.98 90.9469 2.78C90.9469 2.58 90.9735 2.38 91.0269 2.18C91.0935 1.96667 91.1869 1.78 91.3069 1.62C91.4402 1.44667 91.6069 1.31333 91.8069 1.22C92.0202 1.11333 92.2735 1.06 92.5669 1.06H102.847C103.14 1.06 103.387 1.11333 103.587 1.22C103.8 1.31333 103.967 1.44667 104.087 1.62C104.22 1.78 104.314 1.96667 104.367 2.18C104.434 2.38 104.467 2.58 104.467 2.78C104.467 2.98 104.434 3.18667 104.367 3.4C104.314 3.61333 104.22 3.80667 104.087 3.98C103.954 4.15333 103.787 4.29333 103.587 4.4C103.387 4.50667 103.14 4.56 102.847 4.56H99.7869V17.12H95.6269Z" fill="#F2B705"/>
</svg>
