<svg width="24" height="25" viewBox="0 0 24 25" fill="none" xmlns="http://www.w3.org/2000/svg">
<path fill-rule="evenodd" clip-rule="evenodd" d="M10.139 3.01369C10.5401 2.46518 11.1631 2.1001 12.0463 2.1001C12.8848 2.1001 13.4798 2.45717 13.8635 2.99068C14.0826 3.29535 14.2263 3.64781 14.3198 4.00478C14.3669 4.18456 14.5098 4.32339 14.6909 4.36524C17.7223 5.06579 19.4242 7.09254 20.3545 9.58658C21.3345 12.2138 21.4721 15.3821 21.4927 18.0972C21.5012 19.2066 20.599 20.1001 19.4963 20.1001H14.9042C14.6637 20.1001 14.4573 20.2713 14.4128 20.5077C14.3067 21.0721 14.1034 21.5831 13.8245 22.0004C13.4014 22.6336 12.7639 23.1001 11.9963 23.1001C11.2287 23.1001 10.5912 22.6336 10.1681 22.0004C9.88922 21.5831 9.68596 21.0721 9.57981 20.5077C9.53536 20.2713 9.32893 20.1001 9.08842 20.1001H4.49631C3.39364 20.1001 2.49117 19.2064 2.50007 18.0969C2.52144 15.4292 2.66146 12.3234 3.64159 9.72254C4.57318 7.25045 6.27301 5.22045 9.29789 4.44193C9.47456 4.39645 9.61244 4.25837 9.65766 4.08164C9.7532 3.70821 9.9036 3.33553 10.139 3.01369ZM12.0463 3.1001C11.7854 3.1001 11.5585 3.14483 11.3628 3.24374C11.1631 3.3447 11.0349 3.48262 10.9461 3.60401C10.7141 3.9213 10.5888 4.36874 10.5329 4.84796C10.5076 5.06545 10.3437 5.24115 10.1285 5.28153C8.63479 5.56173 7.46528 6.15668 6.55493 6.99779C5.64806 7.83568 5.02166 8.89615 4.57735 10.0752C3.66647 12.4923 3.52142 15.4357 3.50003 18.1049C3.49567 18.6492 3.93917 19.1001 4.49631 19.1001H19.4963C20.0534 19.1001 20.4969 18.6494 20.4928 18.1049C20.4721 15.3861 20.3292 12.3801 19.4175 9.93607C18.9732 8.74477 18.3474 7.68173 17.4402 6.85579C16.5288 6.02601 15.3592 5.45915 13.8684 5.22399C13.647 5.18907 13.4759 5.0111 13.4497 4.78852C13.3939 4.31391 13.2709 3.87944 13.0516 3.57452C12.9704 3.46154 12.8521 3.32962 12.6659 3.23348C12.4834 3.1392 12.2762 3.1001 12.0463 3.1001ZM11.1477 20.1001C10.9877 20.1001 10.8373 20.1767 10.7432 20.3061C10.6491 20.4355 10.6227 20.6022 10.6721 20.7544C10.7562 21.0137 10.8677 21.2475 10.9995 21.4448C11.3067 21.9044 11.6711 22.1001 11.9963 22.1001C12.3215 22.1001 12.686 21.9044 12.9931 21.4448C13.1249 21.2475 13.2364 21.0137 13.3206 20.7544C13.3699 20.6022 13.3435 20.4355 13.2494 20.3061C13.1553 20.1767 13.005 20.1001 12.845 20.1001H11.1477Z" fill="black"/>
</svg>
