<svg width="24" height="24" viewBox="0 0 24 24" fill="none" xmlns="http://www.w3.org/2000/svg">
<path d="M12.0465 15.703L7.12635 18.3451C7.03346 18.3948 6.92936 18.4195 6.82415 18.4168C6.71894 18.4142 6.6162 18.3843 6.5259 18.33C6.4356 18.2757 6.36081 18.1989 6.30879 18.107C6.25677 18.0152 6.22928 17.9113 6.229 17.8056V6.48302C6.229 6.23914 6.32548 6.00525 6.4972 5.8328C6.66892 5.66036 6.90182 5.56348 7.14467 5.56348H17.5222C17.765 5.56348 17.9979 5.66036 18.1696 5.8328C18.3414 6.00525 18.4378 6.23914 18.4378 6.48302V17.8056C18.4376 17.9113 18.4101 18.0152 18.3581 18.107C18.306 18.1989 18.2312 18.2757 18.1409 18.33C18.0506 18.3843 17.9479 18.4142 17.8427 18.4168C17.7375 18.4195 17.6334 18.3948 17.5405 18.3451L12.6203 15.703C12.532 15.6557 12.4335 15.631 12.3334 15.631C12.2334 15.631 12.1348 15.6557 12.0465 15.703Z" fill="black"/>
</svg>
