<svg width="24" height="24" viewBox="0 0 24 24" fill="none" xmlns="http://www.w3.org/2000/svg">
<path fill-rule="evenodd" clip-rule="evenodd" d="M1.5 1.3999C1.22386 1.3999 1 1.62376 1 1.8999C1 2.17604 1.22386 2.3999 1.5 2.3999H3.5C3.77614 2.3999 4 2.62376 4 2.8999V4.8999C4 4.93995 4.00482 4.98029 4.01467 5.02008L6.61406 15.5178L6.61582 15.5246C6.75754 16.0747 7.08235 16.5601 7.53676 16.9009C7.9873 17.2388 8.53862 17.4146 9.10133 17.4001L9.11425 17.3997L17.8987 17.3999C18.4614 17.4144 19.0127 17.2388 19.4633 16.9009C19.9171 16.5605 20.2417 16.0759 20.3837 15.5268L20.3842 15.5247L22.9854 5.02008C23.0223 4.87082 22.9885 4.71285 22.8938 4.59175C22.799 4.47066 22.6538 4.3999 22.5 4.3999H5.5C5.22386 4.3999 5 4.17604 5 3.8999V1.8999C5 1.62376 4.77614 1.3999 4.5 1.3999H1.5ZM17 18.3999C17.5304 18.3999 18.0391 18.6106 18.4142 18.9857C18.7893 19.3608 19 19.8695 19 20.3999C19 20.9303 18.7893 21.439 18.4142 21.8141C18.0392 22.1892 17.5304 22.3999 17 22.3999C16.4696 22.3999 15.9609 22.1892 15.5858 21.8141C15.2107 21.439 15 20.9303 15 20.3999C15 19.8695 15.2107 19.3608 15.5858 18.9857C15.9609 18.6106 16.4696 18.3999 17 18.3999ZM5.38407 5.59175C5.47884 5.47066 5.62406 5.3999 5.77783 5.3999H21.2222C21.376 5.3999 21.5212 5.47066 21.6159 5.59175C21.7107 5.71285 21.7445 5.87082 21.7075 6.02008L19.4144 15.2808C19.3286 15.6085 19.1343 15.8976 18.8633 16.1009C18.5913 16.3049 18.2581 16.4104 17.9183 16.4002L17.9158 16.4001L17.9058 16.3999H17.9H9.10001L9.0842 16.4001C8.74357 16.4109 8.4094 16.3054 8.13676 16.1009C7.86568 15.8976 7.67147 15.6085 7.58567 15.2808L7.58398 15.2744L5.29249 6.02008C5.25553 5.87082 5.2893 5.71285 5.38407 5.59175ZM10 18.3999C9.46957 18.3999 8.96087 18.6106 8.5858 18.9857C8.21072 19.3608 8.00001 19.8695 8.00001 20.3999C8.00001 20.9303 8.21072 21.439 8.5858 21.8141C8.96087 22.1892 9.46957 22.3999 10 22.3999C10.5304 22.3999 11.0392 22.1892 11.4142 21.8141C11.7893 21.439 12 20.9303 12 20.3999C12 19.8695 11.7893 19.3608 11.4142 18.9857C11.0392 18.6106 10.5304 18.3999 10 18.3999ZM9.2929 19.6928C9.48044 19.5053 9.7348 19.3999 10 19.3999C10.2652 19.3999 10.5196 19.5053 10.7071 19.6928C10.8946 19.8803 11 20.1347 11 20.3999C11 20.6651 10.8947 20.9195 10.7071 21.107C10.5196 21.2945 10.2652 21.3999 10 21.3999C9.7348 21.3999 9.48044 21.2945 9.2929 21.107C9.10536 20.9195 9.00001 20.6651 9.00001 20.3999C9.00001 20.1347 9.10536 19.8803 9.2929 19.6928ZM17 21.3999C17.5523 21.3999 18 20.9522 18 20.3999C18 19.8476 17.5523 19.3999 17 19.3999C16.4477 19.3999 16 19.8476 16 20.3999C16 20.9522 16.4477 21.3999 17 21.3999Z" fill="black"/>
</svg>
