<svg width="24" height="24" viewBox="0 0 24 24" fill="none" xmlns="http://www.w3.org/2000/svg">
<path d="M15.2 4H8.8C6.15333 4 4 6.15333 4 8.8V12.5333C4 15.0907 6.01013 17.1872 8.53333 17.3261V19.5512C8.53333 19.8011 8.73707 20.0043 8.98747 20.0043C9.1072 20.0043 9.22053 19.9568 9.30613 19.8712L9.8064 19.3709C11.12 18.0571 12.8669 17.3333 14.7251 17.3333H15.2C17.8467 17.3333 20 15.18 20 12.5333V8.8C20 6.15333 17.8467 4 15.2 4ZM8.53333 11.7333C7.94507 11.7333 7.46667 11.2549 7.46667 10.6667C7.46667 10.0784 7.94507 9.6 8.53333 9.6C9.1216 9.6 9.6 10.0784 9.6 10.6667C9.6 11.2549 9.12133 11.7333 8.53333 11.7333ZM12 11.7333C11.4117 11.7333 10.9333 11.2549 10.9333 10.6667C10.9333 10.0784 11.4117 9.6 12 9.6C12.5883 9.6 13.0667 10.0784 13.0667 10.6667C13.0667 11.2549 12.588 11.7333 12 11.7333ZM15.4667 11.7333C14.8784 11.7333 14.4 11.2549 14.4 10.6667C14.4 10.0784 14.8784 9.6 15.4667 9.6C16.0549 9.6 16.5333 10.0784 16.5333 10.6667C16.5333 11.2549 16.0547 11.7333 15.4667 11.7333Z" fill="black"/>
</svg>
