<svg width="24" height="24" viewBox="0 0 24 24" fill="none" xmlns="http://www.w3.org/2000/svg">
<g clip-path="url(#clip0)">
<path d="M22.0718 3.96959C19.4616 1.3601 15.2154 1.3601 12.6059 3.96959L11.9998 4.57534L11.394 3.96959C8.78456 1.35975 4.53796 1.35975 1.92847 3.96959C-0.628033 6.52609 -0.644634 10.5784 1.88997 13.396C4.20171 15.9648 11.0196 21.5147 11.3089 21.7496C11.5053 21.9093 11.7416 21.987 11.9765 21.987C11.9843 21.987 11.992 21.987 11.9994 21.9866C12.2424 21.9979 12.4872 21.9146 12.69 21.7496C12.9792 21.5147 19.7979 15.9648 22.1103 13.3956C24.6446 10.5784 24.628 6.52609 22.0718 3.96959Z" fill="black"/>
</g>
<defs>
<clipPath id="clip0">
<rect width="24" height="24" fill="white"/>
</clipPath>
</defs>
</svg>
