<svg width="24" height="25" viewBox="0 0 24 25" fill="none" xmlns="http://www.w3.org/2000/svg">
<path fill-rule="evenodd" clip-rule="evenodd" d="M12 3.6001C9.79086 3.6001 8 5.39096 8 7.6001V10.6001H16V7.6001C16 5.39096 14.2091 3.6001 12 3.6001ZM6 7.6001V10.6001H5C3.34315 10.6001 2 11.9432 2 13.6001V20.6001C2 22.257 3.34315 23.6001 5 23.6001H19C20.6569 23.6001 22 22.257 22 20.6001V13.6001C22 11.9432 20.6569 10.6001 19 10.6001H18V7.6001C18 4.28639 15.3137 1.6001 12 1.6001C8.68629 1.6001 6 4.28639 6 7.6001ZM12 19.1001C13.1046 19.1001 14 18.2047 14 17.1001C14 15.9955 13.1046 15.1001 12 15.1001C10.8954 15.1001 10 15.9955 10 17.1001C10 18.2047 10.8954 19.1001 12 19.1001Z" fill="black"/>
</svg>
