<svg width="24" height="24" viewBox="0 0 24 24" fill="none" xmlns="http://www.w3.org/2000/svg">
<path fill-rule="evenodd" clip-rule="evenodd" d="M12 22C17.5228 22 22 17.5228 22 12C22 6.47715 17.5228 2 12 2C6.47715 2 2 6.47715 2 12C2 17.5228 6.47715 22 12 22ZM9.56468 7.63701C9.50353 7.629 9.42812 7.625 9.33844 7.625H8.25004V16.375H10.0722V11.6847C10.0722 11.5566 10.0681 11.4205 10.06 11.2763C10.0518 11.1282 10.0416 10.9781 10.0294 10.8259L14.2301 16.0387C14.332 16.1668 14.438 16.2549 14.5481 16.3029C14.6581 16.351 14.7927 16.375 14.9516 16.375H16.0278V7.625H14.2057V12.2552C14.2057 12.3954 14.2097 12.5455 14.2179 12.7056C14.226 12.8618 14.2383 13.0239 14.2546 13.1921L10.0233 7.93729C9.96621 7.86922 9.91525 7.81517 9.87041 7.77514C9.82557 7.7351 9.77869 7.70507 9.72977 7.68506C9.68086 7.66103 9.62583 7.64502 9.56468 7.63701Z" fill="black"/>
</svg>
