<svg width="24" height="24" viewBox="0 0 24 24" fill="none" xmlns="http://www.w3.org/2000/svg">
<g clip-path="url(#clip0)">
<path d="M17.2142 6.41983C16.7988 6.03827 16.3458 5.69898 15.8618 5.40747L15.8614 5.40725C14.6529 4.68212 13.2946 4.29736 11.9329 4.29736C9.76143 4.29736 7.7579 5.19377 6.29595 6.81821L6.47727 6.98139L6.29595 6.81821C5.00446 8.25327 4.22998 10.1864 4.22998 12.0003C4.22998 12.3453 4.50967 12.6253 4.85498 12.6253C5.20029 12.6253 5.47998 12.3453 5.47998 12.0003C5.47998 10.5001 6.12979 8.87131 7.22505 7.6545C8.44911 6.29467 10.1196 5.54736 11.9329 5.54736C13.0641 5.54736 14.2003 5.8685 15.218 6.47919C15.6943 6.76576 16.135 7.10654 16.5313 7.49435L15.374 7.45617C15.374 7.45617 15.3739 7.45617 15.3739 7.45617C15.0288 7.4447 14.74 7.71534 14.7287 8.06029C14.7174 8.405 14.9875 8.69419 15.3328 8.70543C15.3328 8.70543 15.3328 8.70543 15.3328 8.70543C15.3329 8.70543 15.3329 8.70544 15.333 8.70544L17.7316 8.78464C17.9531 8.85554 18.1977 8.79758 18.3642 8.63096L18.3643 8.63086C18.5305 8.46424 18.5881 8.2197 18.5169 7.99828L18.438 5.60284C18.438 5.60236 18.438 5.60188 18.438 5.60141C18.4294 5.25694 18.1436 4.98439 17.7992 4.99199L17.799 4.992C17.4554 4.99978 17.1822 5.28381 17.1881 5.62744M17.2142 6.41983L17.1882 5.63091L17.4381 5.62525M17.2142 6.41983L17.1886 5.64521C17.1882 5.63729 17.1881 5.63072 17.1881 5.62744M17.2142 6.41983L17.1881 5.62744M17.1881 5.62744C17.1881 5.62659 17.1881 5.62596 17.1881 5.62558L17.1881 5.62525H17.4381M17.4381 5.62525C17.4381 5.62807 17.4381 5.63064 17.4383 5.63334L18.2684 8.046L18.1881 5.6085C18.1834 5.40143 18.0117 5.23736 17.8047 5.24193C17.5977 5.24662 17.4334 5.4183 17.4381 5.62525Z" fill="black" stroke="black" stroke-width="0.5"/>
<path d="M7.42873 16.5065C7.82505 16.8943 8.26571 17.235 8.74197 17.5217C9.75959 18.1323 10.8958 18.4533 12.0271 18.4533C13.8404 18.4533 15.5109 17.7062 16.7349 16.3464C17.8302 15.1294 18.48 13.5006 18.48 12.0005C18.48 11.6552 18.7597 11.3755 19.105 11.3755C19.4502 11.3755 19.73 11.6552 19.73 12.0005C19.73 13.8144 18.9555 15.7476 17.664 17.1828L17.664 17.1828C16.202 18.8072 14.1985 19.7035 12.0271 19.7035C10.6654 19.7035 9.30709 19.3189 8.09851 18.5936L8.09811 18.5934C7.61418 18.3017 7.1612 17.9625 6.74579 17.5809L6.77135 18.3556L7.42873 16.5065ZM7.42873 16.5065L8.58606 16.5447L8.58624 16.5447C8.93106 16.5558 9.21991 16.2854 9.23124 15.9405C9.24257 15.5955 8.97223 15.3067 8.62726 15.2952L8.62715 15.2952L6.22838 15.2161C6.00673 15.1452 5.7622 15.2034 5.59589 15.3697L5.59569 15.3699C5.42946 15.5365 5.37186 15.7809 5.443 16.0023L5.52194 18.3992L7.42873 16.5065ZM6.16094 19.0087C6.50473 19.0011 6.77781 18.7169 6.77184 18.3732L6.1608 19.0087C6.16084 19.0087 6.16089 19.0087 6.16094 19.0087Z" fill="black" stroke="black" stroke-width="0.5"/>
</g>
<defs>
<clipPath id="clip0">
<rect width="16" height="16" fill="white" transform="translate(4 4)"/>
</clipPath>
</defs>
</svg>
